<?xml version="1.0" encoding="UTF-8"?>
<!DOCTYPE svg PUBLIC "-//W3C//DTD SVG 1.1//EN" "http://www.w3.org/Graphics/SVG/1.1/DTD/svg11.dtd">
<!-- Creator: CorelDRAW 2019 (64-Bit) -->
<svg xmlns="http://www.w3.org/2000/svg" xml:space="preserve" width="210mm" height="297mm" version="1.1" style="shape-rendering:geometricPrecision; text-rendering:geometricPrecision; image-rendering:optimizeQuality; fill-rule:evenodd; clip-rule:evenodd"
viewBox="0 0 21000 29700"
 xmlns:xlink="http://www.w3.org/1999/xlink"
 xmlns:xodm="http://www.corel.com/coreldraw/odm/2003">
 <defs>
  <style type="text/css">
   <![CDATA[
    .fil0 {fill:none;fill-rule:nonzero}
    .fil6 {fill:#FEFEFE}
    .fil2 {fill:#4223C7}
    .fil5 {fill:#DDBF67}
    .fil7 {fill:#FEFEFE;fill-rule:nonzero}
    .fil3 {fill:url(#id0)}
    .fil1 {fill:url(#id1)}
    .fil4 {fill:url(#id2)}
   ]]>
  </style>
  <linearGradient id="id0" gradientUnits="userSpaceOnUse" x1="5354.84" y1="12932.43" x2="9926.84" y2="8286.35">
   <stop offset="0" style="stop-opacity:1; stop-color:#CD8497"/>
   <stop offset="1" style="stop-opacity:1; stop-color:#CD8497"/>
  </linearGradient>
  <linearGradient id="id1" gradientUnits="userSpaceOnUse" x1="12932.51" y1="19176.62" x2="11811.94" y2="10911.55">
   <stop offset="0" style="stop-opacity:1; stop-color:#C83722"/>
   <stop offset="1" style="stop-opacity:1; stop-color:#DA5B38"/>
  </linearGradient>
  <linearGradient id="id2" gradientUnits="userSpaceOnUse" x1="8688.58" y1="18045.61" x2="7048.17" y2="9816.05">
   <stop offset="0" style="stop-opacity:1; stop-color:#DCB357"/>
   <stop offset="1" style="stop-opacity:1; stop-color:#DDBF67"/>
  </linearGradient>
 </defs>
 <g id="图层_x0020_1">
  <metadata id="CorelCorpID_0Corel-Layer"/>
  <polygon class="fil0" points="189.51,6912.5 21356.18,6912.5 21356.18,22787.5 189.51,22787.5 "/>
  <g id="_3505283280">
   <path class="fil1" d="M10864.64 8632.93l3341.38 0c144.56,86.43 285.38,178.12 422.18,274.81l3.07 2.16c80.35,56.87 159.31,115.45 236.84,175.71l8.48 6.58c76.14,59.37 150.88,120.38 224.16,182.92l11.94 10.21c72.07,61.82 142.72,125.12 211.9,189.9l14.83 13.94c67.9,63.97 134.38,129.34 199.35,196.08l18.47 19.1c39.6,41.01 78.66,82.5 117.12,124.51l10.23 11.1c19.63,21.53 39.07,43.22 58.39,65.02 7.52,8.48 14.98,17.01 22.45,25.54 32.58,37.16 64.74,74.67 96.46,112.55 7.82,9.34 15.68,18.64 23.45,28.02 17.4,20.98 34.61,42.11 51.72,63.32 8.78,10.89 17.45,21.87 26.15,32.82 27.89,35.11 55.46,70.46 82.62,106.12 9.67,12.7 19.34,25.4 28.93,38.16 15.37,20.45 30.6,41.01 45.7,61.67 10.51,14.38 20.87,28.87 31.24,43.34 23.24,32.42 46.24,65.01 68.89,97.84 10.85,15.74 21.66,31.51 32.4,47.33 13.1,19.29 26.09,38.65 38.94,58.1 17.27,26.15 34.34,52.42 51.19,78.84 13.82,21.68 27.48,43.46 41.06,65.29 11.83,19.03 23.55,38.13 35.21,57.26 11.01,18.06 21.98,36.16 32.77,54.35 18.79,31.68 37.35,63.49 55.55,95.52 9.87,17.36 19.57,34.83 29.29,52.28 12.23,21.96 24.28,44.02 36.28,66.1 9.05,16.65 18.11,33.29 26.98,50.05 17.88,33.79 35.45,67.75 52.68,101.9 8.22,16.31 16.33,32.67 24.43,49.04 12.62,25.51 25.01,51.15 37.33,76.81 6.96,14.5 13.98,28.96 20.8,43.53 16.74,35.78 33.1,71.76 49.13,107.92 7.03,15.85 13.99,31.75 20.91,47.67 12.74,29.32 25.22,58.76 37.54,88.28 5.91,14.15 11.83,28.29 17.62,42.49 14.45,35.48 28.55,71.14 42.32,106.93 5.7,14.81 11.35,29.63 16.94,44.48 13.31,35.34 26.34,70.8 39.02,106.42 4.19,11.78 8.31,23.58 12.43,35.39 12.21,35.03 24.08,70.22 35.67,105.53 4.57,13.93 9.12,27.88 13.6,41.85 13.07,40.83 25.87,81.78 38.09,122.96 2.65,8.91 5.12,17.89 7.73,26.82 10.44,35.77 20.53,71.68 30.35,107.7 3.41,12.51 6.83,25.02 10.16,37.57 11.26,42.48 22.17,85.11 32.52,127.93 2.34,9.69 4.53,19.45 6.83,29.16 8.67,36.62 16.97,73.37 24.99,110.22 2.49,11.43 5.02,22.84 7.44,34.29 9.22,43.71 18.02,87.57 26.27,131.61 1.94,10.35 3.76,20.74 5.65,31.11 6.96,38.11 13.53,76.35 19.8,114.69 1.62,9.91 3.3,19.8 4.87,29.73 7.09,45 13.68,90.14 19.75,135.45 1.42,10.57 2.73,21.17 4.1,31.76 5.22,40.36 10.03,80.83 14.47,121.4 0.86,7.82 1.8,15.59 2.62,23.42 4.83,46.08 9.08,92.32 12.83,138.69 0.9,11.06 1.73,22.14 2.57,33.21 3.32,43.71 6.26,87.52 8.68,131.46 0.24,4.33 0.55,8.64 0.78,12.97 2.47,47.12 4.28,94.39 5.62,141.79l0.91 35.25c1.13,47.92 1.9,95.93 1.9,144.11 0,1973.9 -935.01,3792.08 -2528.01,4986.83 0,0 -289.05,176.36 -585.38,261.03 1918.19,375.22 1362.38,2513.04 -736.76,1714.59l-5.61 -2.37c-16.49,-6.95 -32.93,-13.92 -49.34,-20.91l-11.86 -5.07 -44.4 -19.04 -13.3 -5.75 -42.52 -18.47 -14.77 -6.45 -47.65 -20.96 -5.09 -2.24c-15.76,-6.97 -31.45,-13.96 -47.09,-20.95l-16.98 -7.6 -41.93 -18.89 -14.87 -6.75 -38.95 -17.76 -13.23 -6.06c-14.27,-6.55 -28.49,-13.12 -42.63,-19.67l-10.31 -4.78 -40.61 -18.97 -18.06 -8.49c-14.81,-6.98 -29.57,-13.95 -44.19,-20.91l-3.57 -1.7c-15.74,-7.49 -31.36,-14.98 -46.87,-22.44l-8.04 -3.88c-14.66,-7.08 -29.22,-14.15 -43.66,-21.19l-5.85 -2.85c-15.06,-7.36 -29.98,-14.7 -44.79,-22.02l-5.68 -2.8c-15.23,-7.55 -30.32,-15.06 -45.26,-22.55l-3.18 -1.59c-15.3,-7.68 -30.44,-15.33 -45.43,-22.95l-6.36 -3.24c-13.73,-6.99 -27.33,-13.97 -40.78,-20.91l-5.83 -3.01c-14.22,-7.35 -28.3,-14.66 -42.18,-21.94l-1.92 -1.01c-14.03,-7.36 -27.87,-14.67 -41.55,-21.95l-4.85 -2.58c-13.91,-7.41 -27.63,-14.79 -41.14,-22.1l-0.74 -0.39c-13.85,-7.5 -27.46,-14.95 -40.87,-22.34l-4.04 -2.23c-11.91,-6.57 -23.64,-13.09 -35.2,-19.58l-6.7 -3.77c-11.29,-6.35 -22.42,-12.66 -33.36,-18.92l-5.05 -2.89c-11.65,-6.68 -23.09,-13.31 -34.31,-19.87l-2.15 -1.25c-11.67,-6.83 -23.09,-13.6 -34.29,-20.3l-2.21 -1.31c-11.33,-6.79 -22.42,-13.52 -33.25,-20.16l-2.36 -1.46c-10.23,-6.29 -20.24,-12.51 -30,-18.66l-3.43 -2.17c-9.58,-6.05 -18.93,-12.04 -28.03,-17.94l-2.91 -1.89c-8.85,-5.76 -17.46,-11.45 -25.85,-17.08l-3.79 -2.53c-9.08,-6.1 -17.88,-12.12 -26.37,-18.04 -188.06,-192.32 -444.31,-123.25 -391.87,157.79 189,1012.84 -311.54,1539.02 -847.71,1583.19l0 -13375.93z"/>
   <path class="fil2" d="M16487.73 10936.68c-633.13,516.71 -1441.58,826.74 -2322.52,826.74 -2030.19,0 -3675.98,-1645.79 -3675.98,-3675.98 0,-132.94 7.24,-264.19 21,-393.48l30.73 -1.16c30.12,-1.09 60.27,-2.03 90.47,-2.78 47.01,-1.16 94.14,-1.85 141.42,-1.91 50.07,0.06 99.99,0.81 149.78,2.02 12.84,0.31 25.67,0.64 38.49,1.01 45.4,1.31 90.7,2.97 135.88,5.16 4.65,0.22 9.34,0.36 13.99,0.6 49.17,2.52 98.18,5.6 147.06,9.18 12.52,0.91 25.03,1.89 37.54,2.87 41.74,3.26 83.36,6.88 124.89,10.86 8.28,0.79 16.58,1.48 24.85,2.31 48.01,4.83 95.86,10.17 143.55,16.02 12.04,1.47 24.06,3.04 36.09,4.57 39.88,5.09 79.63,10.53 119.29,16.26 10,1.45 20.03,2.8 30.01,4.3 46.83,7.03 93.49,14.54 139.97,22.55 12.06,2.08 24.09,4.27 36.13,6.41 37.55,6.67 74.99,13.66 112.33,20.9 12.1,2.35 24.22,4.64 36.3,7.07 45.25,9.09 90.38,18.56 135.28,28.56 12.26,2.73 24.47,5.62 36.71,8.41 35.21,8.03 70.32,16.36 105.32,24.91 14,3.42 28.02,6.82 41.99,10.34 43.77,11.04 87.42,22.4 130.82,34.3 11.55,3.17 23.03,6.51 34.56,9.73 34.4,9.62 68.69,19.5 102.88,29.63 14.83,4.39 29.64,8.79 44.42,13.29 42.41,12.91 84.7,26.09 126.72,39.81 10.93,3.57 21.77,7.33 32.68,10.95 33.34,11.08 66.58,22.4 99.69,33.96 15.92,5.56 31.81,11.16 47.67,16.84 35.7,12.79 71.27,25.84 106.67,39.21 15.12,5.71 30.19,11.51 45.25,17.32 32.63,12.59 65.14,25.41 97.51,38.5 17.12,6.92 34.19,13.91 51.24,20.97 28.79,11.92 57.46,24.07 86.04,36.37 20.1,8.65 40.17,17.35 60.16,26.19 30.87,13.66 61.64,27.5 92.26,41.6 18.55,8.54 37.04,17.21 55.49,25.92 23.96,11.31 47.81,22.8 71.61,34.36 21.51,10.45 43,20.94 64.36,31.62 30.78,15.38 61.43,30.97 91.91,46.82 19.27,10.03 38.46,20.19 57.63,30.39 20.7,11.01 41.29,22.2 61.88,33.38 19.27,10.46 38.53,20.93 57.65,31.61 32.71,18.28 65.25,36.81 97.57,55.65 20.56,11.98 41,24.13 61.43,36.3 17.59,10.48 35.1,21.07 52.6,31.67 20.58,12.47 41.14,24.99 61.54,37.71 30.76,19.18 61.37,38.55 91.75,58.24 21.27,13.78 42.37,27.77 63.48,41.76 15.11,10.02 30.18,20.1 45.22,30.22 21.57,14.5 43.06,29.1 64.41,43.88 11.25,7.79 22.37,15.73 33.56,23.6 40.19,28.23 80.09,56.82 119.61,85.88 11.68,8.59 23.33,17.2 34.96,25.84 22.64,16.83 45.17,33.8 67.55,50.94 7.38,5.65 14.68,11.42 22.04,17.1 43.55,33.68 86.68,67.84 129.33,102.55 8.46,6.89 16.94,13.75 25.37,20.67 23.3,19.11 46.44,38.38 69.43,57.82 5.34,4.51 10.62,9.1 15.94,13.63 45.28,38.54 90.02,77.67 134.19,117.38l15.71 14.09c23.49,21.24 46.79,42.66 69.95,64.24l12.28 11.55c47.83,44.81 95.03,90.27 141.43,136.46l1.14 1.12c23.68,23.59 47.15,47.37 70.46,71.31l9.08 9.39c69.98,72.18 138.24,145.9 204.68,221.17l7.31 8.32c66.83,75.97 131.85,153.46 194.96,232.45l5.52 6.93c63.63,79.86 125.33,161.22 185.01,244.03l3.35 4.64c60.15,83.61 118.25,168.66 174.24,255.13l2.1 3.24c56.54,87.43 110.92,176.27 163.07,266.48l0.06 0.1z"/>
   <path class="fil3" d="M4252.8 14446.44l6611.84 0 0 -6757.09 -2.01 -0.03c-29.92,-0.43 -59.77,-1.17 -89.78,-1.21 -3597.84,4.52 -6536.76,2825.19 -6536.76,6302.9 0,30.39 0.22,60.75 0.67,91.07l0.04 2.91c0.45,29.54 1.11,59.06 1.97,88.53l0.12 4.06c0.87,28.87 1.94,57.7 3.2,86.49l0.28 6.4c1.29,28.67 2.78,57.32 4.47,85.92l0.33 5.66c1.68,28.17 3.57,56.3 5.63,84.39z"/>
   <path class="fil4" d="M10864.64 9816.05l0 8486.59 0 3706.22c-586.87,48.36 -1216.43,-480.83 -1031.29,-1583.19 47.35,-281.94 -203.81,-350.11 -391.87,-157.79 -8.49,5.92 -17.3,11.94 -26.37,18.04l-3.79 2.53c-8.4,5.62 -16.99,11.31 -25.85,17.08l-2.91 1.89c-9.11,5.91 -18.45,11.89 -28.03,17.94l-3.43 2.17c-9.76,6.16 -19.76,12.37 -30,18.66l-2.36 1.46c-10.82,6.64 -21.91,13.37 -33.25,20.16l-2.21 1.31c-11.2,6.7 -22.61,13.46 -34.29,20.3l-2.15 1.25c-11.23,6.56 -22.67,13.19 -34.31,19.87l-5.05 2.89c-10.95,6.26 -22.06,12.57 -33.36,18.92l-6.7 3.77c-11.55,6.48 -23.29,13.01 -35.2,19.58l-4.04 2.23c-13.41,7.39 -27.03,14.84 -40.87,22.34l-0.74 0.39c-13.51,7.32 -27.24,14.69 -41.14,22.1l-4.85 2.58c-13.68,7.28 -27.51,14.59 -41.55,21.95l-1.92 1.01c-13.88,7.27 -27.97,14.59 -42.18,21.94l-5.83 3.01c-13.45,6.94 -27.05,13.91 -40.78,20.91l-6.36 3.24c-14.98,7.61 -30.12,15.27 -45.43,22.95l-3.18 1.59c-14.94,7.48 -30.03,15 -45.26,22.55l-5.68 2.8c-14.8,7.32 -29.73,14.66 -44.79,22.02l-5.85 2.85c-14.44,7.05 -29,14.12 -43.66,21.19l-8.04 3.88c-15.51,7.47 -31.13,14.95 -46.87,22.44l-3.57 1.7c-14.63,6.96 -29.38,13.94 -44.19,20.91l-18.06 8.49 -40.61 18.97 -10.31 4.78c-14.13,6.56 -28.35,13.11 -42.63,19.67l-13.23 6.06 -38.95 17.76 -14.87 6.75 -41.93 18.89 -16.98 7.6c-15.64,6.99 -31.33,13.98 -47.09,20.95l-5.09 2.24c-15.83,6.99 -31.72,13.99 -47.65,20.96l-14.77 6.45 -42.52 18.47 -13.3 5.75 -44.4 19.04 -11.86 5.07c-16.41,6.99 -32.86,13.96 -49.34,20.91l-5.61 2.37c-2099.14,798.45 -2654.95,-1339.37 -736.76,-1714.59 -296.33,-84.67 -585.38,-261.03 -585.38,-261.03 -24.63,-18.48 -49.11,-37.1 -73.42,-55.88l-1.78 -1.37c-23.5,-18.16 -46.86,-36.46 -70.07,-54.89l-4.17 -3.32c-22.98,-18.28 -45.81,-36.68 -68.5,-55.23l-2.88 -2.35c-23.03,-18.85 -45.91,-37.84 -68.63,-56.96l-3.5 -2.95c-22.04,-18.56 -43.92,-37.25 -65.66,-56.06l-5.21 -4.52c-21.4,-18.57 -42.68,-37.25 -63.8,-56.06l-4.99 -4.44c-21.03,-18.76 -41.92,-37.64 -62.68,-56.65l-7.35 -6.75c-19.93,-18.3 -39.74,-36.72 -59.4,-55.24l-8.33 -7.86c-18.98,-17.94 -37.82,-35.97 -56.55,-54.1l-9.83 -9.53c-18.44,-17.93 -36.76,-35.96 -54.95,-54.08l-11.32 -11.3c-18.06,-18.07 -36,-36.22 -53.81,-54.48l-10.87 -11.18 -11.78 0 0 -12.16c-13.34,-13.8 -26.6,-27.65 -39.8,-41.56l-10.82 -11.43c-16.82,-17.82 -33.52,-35.73 -50.12,-53.72l-13.47 -14.65c-16.08,-17.54 -32.06,-35.15 -47.93,-52.85l-12.67 -14.17c-16.16,-18.13 -32.2,-36.34 -48.14,-54.63l222.95 -359.63 0 -7980.18 4880.02 0 0 108.39zm-5062.59 89.68c26,-29.3 52.28,-58.36 78.81,-87.21l2.14 -2.31 -80.95 89.52zm0 0c-13.44,15.13 -26.79,30.34 -40.07,45.61l40.07 -45.61z"/>
   <path class="fil2" d="M8688.58 18045.61l-0.02 3.53c-0.01,14.49 -0.1,28.95 -0.25,43.4l-0.21 17.62c-0.14,9.87 -0.3,19.72 -0.5,29.57 -22.25,1130.34 -444.44,2162.59 -1130.83,2961.24 -1649.6,279.29 -1952.46,-1520.73 -207.29,-1862.1 -296.33,-84.67 -585.38,-261.03 -585.38,-261.03 -628.79,-471.59 -1154.94,-1040.36 -1561.66,-1677.46l-0.03 -0.01 -10.87 -17.2c-13.88,-21.9 -27.62,-43.86 -41.22,-65.91l-12.13 -19.77c-12.84,-21.01 -25.55,-42.09 -38.14,-63.24l-14.11 -23.78c-7.43,-12.61 -14.82,-25.23 -22.15,-37.89 -4.96,-8.56 -9.86,-17.16 -14.79,-25.74 -11.48,-20.03 -22.87,-40.11 -34.12,-60.27l-14.13 -25.45c-10.81,-19.58 -21.51,-39.22 -32.1,-58.9 -4.83,-8.98 -9.67,-17.95 -14.46,-26.95 -7.05,-13.25 -14.04,-26.52 -20.99,-39.82 -4.41,-8.44 -8.76,-16.91 -13.14,-25.37 -10.56,-20.44 -21.02,-40.94 -31.34,-61.49l-12.77 -25.55c-9.32,-18.75 -18.52,-37.55 -27.65,-56.39 -5.43,-11.21 -10.85,-22.42 -16.21,-33.66 -5.81,-12.19 -11.57,-24.41 -17.3,-36.63 -5.45,-11.63 -10.83,-23.27 -16.21,-34.94 -7.97,-17.29 -15.87,-34.62 -23.68,-51.99 -5.02,-11.16 -10.01,-22.34 -14.96,-33.53 -5.2,-11.75 -10.4,-23.5 -15.53,-35.28 -8.02,-18.44 -15.95,-36.93 -23.79,-55.45 -4.54,-10.72 -9.02,-21.45 -13.5,-32.2 -6.13,-14.7 -12.18,-29.43 -18.19,-44.17 -5.68,-13.93 -11.31,-27.89 -16.89,-41.87 -5.65,-14.15 -11.24,-28.31 -16.78,-42.5 -4.15,-10.63 -8.3,-21.26 -12.4,-31.92 -7.42,-19.31 -14.71,-38.67 -21.94,-58.06 -3.94,-10.58 -7.83,-21.17 -11.71,-31.78 -5.59,-15.27 -11.11,-30.56 -16.58,-45.87 -4.59,-12.85 -9.14,-25.72 -13.64,-38.61 -5.64,-16.15 -11.23,-32.32 -16.74,-48.52l-9.88 -29.2c-6.96,-20.79 -13.8,-41.62 -20.54,-62.5 -2.97,-9.2 -5.87,-18.42 -8.8,-27.63 -5.47,-17.23 -10.86,-34.48 -16.18,-51.76 -3.18,-10.33 -6.34,-20.66 -9.46,-31.01 -5.73,-18.97 -11.35,-37.98 -16.9,-57.02l-7.58 -26.19c-6.36,-22.2 -12.61,-44.44 -18.72,-66.73 -2.13,-7.76 -4.2,-15.54 -6.3,-23.31 -5.34,-19.79 -10.6,-39.62 -15.74,-59.47l-4.37 -16.76c-6.12,-23.89 -12.05,-47.85 -17.88,-71.83l-4.98 -20.59c-5.81,-24.24 -11.49,-48.53 -17.01,-72.87l-3.78 -16.98c-5.06,-22.63 -10.01,-45.29 -14.82,-68l-2.53 -11.87c-5.23,-24.94 -10.27,-49.95 -15.19,-74.98l-3.88 -19.85c-4.84,-25.05 -9.55,-50.15 -14.08,-75.28l-2.32 -13.15c-4.29,-24.1 -8.44,-48.25 -12.45,-72.43l-1.8 -10.79c-4.28,-26.1 -8.35,-52.24 -12.29,-78.42l-2.44 -16.36c-3.88,-26.23 -7.62,-52.49 -11.16,-78.8l-1.25 -9.58c-3.36,-25.29 -6.56,-50.62 -9.62,-75.99l-1.31 -10.82c-3.18,-26.86 -6.17,-53.77 -9.01,-80.71l-1.4 -13.55c-2.86,-27.8 -5.57,-55.62 -8.05,-83.5l-0.02 -0.24c-2.52,-28.29 -4.81,-56.64 -6.95,-85.01l-0.69 -9.1c-2.04,-27.66 -3.88,-55.36 -5.55,-83.1l-0.68 -11.58c-3.32,-56.93 -5.84,-114.02 -7.6,-171.25l-0.3 -9.42c-0.82,-28.02 -1.43,-56.08 -1.87,-84.17l-0.15 -10.92c-0.41,-28.61 -0.65,-57.26 -0.65,-85.94 0,-211.85 11.1,-421.22 32.39,-627.71 2464.59,139.99 4420.09,2182.65 4420.1,4682.29l0.02 0.02z"/>
   <polygon class="fil5" points="14087.13,9816.04 17053.9,12782.81 14087.13,15749.58 11120.36,12782.81 "/>
   <path class="fil6" d="M9845.49 15293.31l1854.72 0c123.06,0 223.72,100.66 223.72,223.72l0 89.45c0,123.06 -100.66,223.72 -223.72,223.72l-1854.72 0c-123.06,0 -223.72,-100.66 -223.72,-223.72l0 -89.45c0,-123.06 100.66,-223.72 223.72,-223.72zm-77.28 1651.35l2009.28 0c80.55,0 146.44,65.88 146.44,146.44l0 333.49c0,80.56 -65.89,146.44 -146.44,146.44l-2009.28 0c-80.55,0 -146.44,-65.88 -146.44,-146.44l0 -333.49c0,-80.56 65.89,-146.44 146.44,-146.44zm0 -870.42l2009.28 0c80.55,0 146.44,65.89 146.44,146.44l0 333.5c0,80.55 -65.89,146.44 -146.44,146.44l-2009.28 0c-80.55,0 -146.44,-65.89 -146.44,-146.44l0 -333.5c0,-80.55 65.89,-146.44 146.44,-146.44z"/>
   <path class="fil7" d="M8149.54 12155.47c-432.96,0 -796.5,346.29 -796.5,761.9 0,415.61 346.32,761.93 796.5,761.93 432.86,0 796.5,-346.32 796.5,-761.93 0,-415.61 -363.64,-761.9 -796.5,-761.9zm0 1004.29c-138.6,0 -242.53,-103.89 -242.53,-225.04 0,-121.25 103.93,-225.14 242.53,-225.14 138.5,0 242.4,103.89 242.4,225.14 0,121.15 -103.9,225.04 -242.4,225.04zm0 0z"/>
   <path class="fil7" d="M14591.21 12917.36c0,-623.57 -519.57,-1143.13 -1195.05,-1143.13 -675.5,0 -1195.05,519.56 -1195.05,1143.13 0,623.58 519.55,1143.18 1195.05,1143.18 675.48,0 1195.05,-519.6 1195.05,-1143.18zm-1169 337.63c-207.81,0 -363.69,-155.87 -363.69,-337.63 0,-181.92 155.88,-337.85 363.69,-337.85 207.8,0 363.67,155.93 363.67,337.85 0,181.76 -155.87,337.63 -363.67,337.63zm0 0z"/>
   <path class="fil7" d="M8149.54 11358.11c534.41,0 1020.25,170.32 1373.71,445.69 363.12,282.9 587.73,676.46 587.73,1113.58 0,437.12 -224.61,830.68 -587.73,1113.58 -353.46,275.37 -839.3,445.69 -1373.71,445.69 -534.41,0 -1020.25,-170.32 -1373.71,-445.69 -363.12,-282.9 -587.73,-676.46 -587.73,-1113.58 0,-437.12 224.61,-830.68 587.73,-1113.58 353.46,-275.37 839.3,-445.69 1373.71,-445.69zm1200.63 667.27c-305.36,-237.9 -729.71,-385.05 -1200.63,-385.05 -470.92,0 -895.27,147.15 -1200.63,385.05 -295.69,230.37 -478.59,545.91 -478.59,892 0,346.08 182.9,661.63 478.59,892 305.36,237.9 729.71,385.05 1200.63,385.05 470.92,0 895.27,-147.15 1200.63,-385.05 295.69,-230.37 478.59,-545.92 478.59,-892 0,-346.09 -182.9,-661.63 -478.59,-892z"/>
   <path class="fil7" d="M13396.16 10648.48c785.93,0 1499.48,249.75 2017.76,653.54 527.96,411.31 854.52,982.28 854.52,1615.36 0,633.08 -326.56,1204.05 -854.52,1615.36 -518.28,403.79 -1231.83,653.54 -2017.76,653.54 -785.93,0 -1499.48,-249.75 -2017.76,-653.54 -527.96,-411.31 -854.52,-982.28 -854.52,-1615.36 0,-633.08 326.56,-1204.05 854.52,-1615.36 518.28,-403.79 1231.83,-653.54 2017.76,-653.54zm1844.68 875.12c-470.19,-366.32 -1122.25,-592.9 -1844.68,-592.9 -722.43,0 -1374.49,226.58 -1844.68,592.9 -460.52,358.77 -745.38,851.73 -745.38,1393.78 0,542.05 284.86,1035.01 745.38,1393.78 470.19,366.32 1122.25,592.9 1844.68,592.9 722.43,0 1374.49,-226.58 1844.68,-592.9 460.52,-358.77 745.38,-851.73 745.38,-1393.78 0,-542.05 -284.86,-1035.01 -745.38,-1393.78z"/>
  </g>
 </g>
</svg>
